<svg width="1579" height="455" viewBox="0 0 1579 455" fill="none" xmlns="http://www.w3.org/2000/svg">
<path d="M1474.54 333.106L1471.36 327.487H1471.12L1471.72 333.106V358.57H1467.11V319.029H1469.71L1489.48 345.001L1492.54 350.336H1492.84L1492.19 345.001V319.642H1496.79V359.183H1494.19L1474.54 333.106Z" fill="#797778"/>
<path d="M1509.94 354.401L1530.77 325.978L1533.25 323.766H1509.94V319.642H1537.67V323.811L1516.72 352.398L1514.25 354.46H1537.67V358.57H1509.94V354.401Z" fill="#797778"/>
<path d="M1569.29 347.781H1554.07L1549.95 358.57H1545.11L1560.74 319.029H1562.98L1578.68 358.57H1573.54L1569.29 347.781ZM1555.67 343.776H1567.82L1563.22 331.941L1561.74 326.038H1561.68L1560.21 332.045L1555.67 343.776Z" fill="#797778"/>
<path d="M440.787 118.093V278.392H374.401V118.093H440.787Z" fill="#03579B"/>
<path d="M666.159 118.093C671.982 118.093 677.531 119.169 682.807 121.321C688.079 123.473 692.725 126.443 696.744 130.227C700.759 134.015 703.946 138.394 706.305 143.362C708.671 148.335 709.856 153.64 709.856 159.277V196.457C709.856 202.546 708.671 208.075 706.305 213.044C703.946 218.017 700.759 222.361 696.744 226.075C692.725 229.781 688.079 232.635 682.807 234.638C677.531 236.64 671.982 237.641 666.159 237.641H574.737L548.275 192.004H633.323C637.413 192.004 640.521 190.894 642.646 188.671C644.77 186.441 645.833 183.691 645.833 180.422V179.317C645.833 176.051 644.849 173.306 642.883 171.083C640.917 168.852 637.73 167.735 633.323 167.735H540.95V278.392H474.563V118.093H666.159Z" fill="#03579B"/>
<path d="M932.144 177.762C947.428 177.762 958.531 181.551 965.456 189.12C972.388 196.681 975.857 206.551 975.857 218.723V237.208C975.857 242.251 974.989 247.22 973.257 252.121C971.52 257.023 968.88 261.442 965.329 265.376C961.785 269.303 957.298 272.456 951.868 274.836C946.433 277.208 939.857 278.392 932.144 278.392H739.391V233.203H901.21C905.776 233.203 908.686 232.426 909.946 230.872C911.203 229.31 911.833 227.562 911.833 225.627C911.833 223.845 911.203 222.212 909.946 220.725C908.686 219.242 905.776 218.499 901.21 218.499H779.077C773.091 218.499 767.423 217.647 762.064 215.943C756.705 214.232 752.059 211.819 748.127 208.711C744.195 205.595 741.079 201.881 738.788 197.578C736.505 193.274 735.364 188.447 735.364 183.097V157.275C735.364 151.637 736.505 146.407 738.788 141.584C741.079 136.754 744.195 132.596 748.127 129.106C752.059 125.621 756.705 122.916 762.064 120.992C767.423 119.061 773.091 118.093 779.077 118.093H967.342V163.282H810.026C805.448 163.282 802.531 163.992 801.274 165.404C800.014 166.809 799.387 168.479 799.387 170.41C799.387 172.196 800.014 173.87 801.274 175.431C802.531 176.985 805.448 177.762 810.026 177.762H932.144Z" fill="#03579B"/>
<path d="M1248.7 118.093V229.407C1248.7 236.244 1247.32 242.629 1244.56 248.565C1241.81 254.494 1238.07 259.683 1233.35 264.136C1228.62 268.589 1223.07 272.082 1216.68 274.611C1210.31 277.133 1203.58 278.392 1196.5 278.392H1058.07C1050.97 278.392 1044.28 277.133 1037.98 274.611C1031.68 272.082 1026.17 268.589 1021.44 264.136C1016.72 259.683 1012.97 254.494 1010.22 248.565C1007.46 242.629 1006.09 236.244 1006.09 229.407V118.093H1072.48V214.27C1072.48 218.125 1073.93 221.502 1076.84 224.401C1079.76 227.3 1083.34 228.75 1087.59 228.75H1166.96C1171.21 228.75 1174.83 227.3 1177.82 224.401C1180.82 221.502 1182.33 218.125 1182.33 214.27V118.093H1248.7Z" fill="#03579B"/>
<path d="M1571.16 118.093V278.392H1504.78V180.213L1450.68 278.392H1401.54L1347.68 180.213V278.392H1281.3V118.093H1372.26L1426.34 223.176L1484.23 118.093H1571.16Z" fill="#03579B"/>
<path d="M410.932 356.956C409.758 357.815 408.26 358.406 406.445 358.734C404.637 359.07 402.711 359.242 400.673 359.242C398.188 359.242 395.861 358.843 393.697 358.047C391.541 357.251 389.654 356.037 388.037 354.401C386.427 352.768 385.151 350.68 384.2 348.139C383.256 345.599 382.789 342.592 382.789 339.113C382.789 335.478 383.312 332.389 384.358 329.848C385.405 327.308 386.776 325.231 388.481 323.617C390.193 322.003 392.111 320.83 394.236 320.09C396.361 319.354 398.525 318.984 400.737 318.984C403.091 318.984 405.018 319.104 406.508 319.343C408.006 319.582 409.287 319.907 410.345 320.314L409.172 324.379C407.277 323.524 404.582 323.094 401.086 323.094C399.468 323.094 397.871 323.374 396.297 323.931C394.732 324.491 393.324 325.403 392.08 326.665C390.843 327.921 389.848 329.572 389.099 331.612C388.358 333.644 387.989 336.147 387.989 339.113C387.989 341.785 388.342 344.12 389.051 346.122C389.757 348.117 390.732 349.779 391.969 351.113C393.206 352.451 394.656 353.452 396.329 354.117C397.998 354.785 399.821 355.118 401.799 355.118C403.563 355.118 405.101 354.954 406.413 354.625C407.733 354.289 408.847 353.859 409.758 353.34L410.932 356.956Z" fill="#797778"/>
<path d="M420.842 339.113C420.842 332.62 422.293 327.644 425.202 324.185C428.12 320.718 432.274 318.984 437.665 318.984C440.57 318.984 443.087 319.47 445.212 320.434C447.337 321.39 449.096 322.75 450.492 324.514C451.887 326.277 452.918 328.395 453.583 330.865C454.257 333.327 454.598 336.076 454.598 339.113C454.598 345.599 453.128 350.575 450.19 354.042C447.261 357.509 443.087 359.242 437.665 359.242C434.787 359.242 432.298 358.757 430.197 357.793C428.092 356.829 426.344 355.469 424.949 353.713C423.554 351.95 422.515 349.839 421.841 347.377C421.175 344.908 420.842 342.154 420.842 339.113ZM426.043 339.113C426.043 341.258 426.265 343.294 426.709 345.225C427.161 347.149 427.858 348.842 428.802 350.306C429.753 351.771 430.962 352.944 432.433 353.818C433.911 354.685 435.655 355.118 437.665 355.118C441.319 355.118 444.189 353.814 446.274 351.203C448.355 348.595 449.398 344.564 449.398 339.113C449.398 337.003 449.168 334.974 448.716 333.031C448.272 331.081 447.562 329.37 446.591 327.906C445.628 326.441 444.407 325.276 442.929 324.409C441.458 323.535 439.702 323.094 437.665 323.094C434.05 323.094 431.204 324.405 429.135 327.024C427.073 329.635 426.043 333.667 426.043 339.113Z" fill="#797778"/>
<path d="M476.245 333.106L473.058 327.487H472.82L473.422 333.106V358.57H468.809V319.029H471.409L491.18 345.001L494.241 350.336H494.542L493.892 345.001V319.642H498.49V359.183H495.889L476.245 333.106Z" fill="#797778"/>
<path d="M533.06 348.677C533.06 347.116 532.568 345.845 531.585 344.867C530.602 343.88 529.369 343.01 527.891 342.252C526.42 341.497 524.819 340.783 523.087 340.115C521.362 339.45 519.761 338.643 518.282 337.694C516.8 336.749 515.571 335.583 514.588 334.197C513.605 332.803 513.114 331.029 513.114 328.877C513.114 325.84 514.231 323.434 516.475 321.659C518.726 319.877 521.913 318.984 526.036 318.984C528.434 318.984 530.618 319.156 532.584 319.493C534.55 319.821 536.088 320.247 537.198 320.763L535.723 324.812C534.812 324.405 533.48 324.017 531.728 323.647C529.984 323.281 528.006 323.094 525.798 323.094C523.206 323.094 521.263 323.643 519.963 324.738C518.663 325.836 518.013 327.121 518.013 328.593C518.013 330.05 518.504 331.261 519.487 332.224C520.47 333.181 521.695 334.044 523.166 334.81C524.644 335.568 526.25 336.315 527.986 337.051C529.718 337.791 531.319 338.65 532.79 339.636C534.269 340.623 535.501 341.803 536.484 343.178C537.467 344.545 537.959 346.249 537.959 348.289C537.959 349.955 537.642 351.453 537.008 352.787C536.381 354.124 535.458 355.275 534.233 356.239C533.016 357.195 531.541 357.938 529.809 358.465C528.085 358.981 526.119 359.242 523.911 359.242C520.962 359.242 518.524 359.026 516.602 358.6C514.675 358.174 513.181 357.699 512.115 357.18L513.764 353.011C514.671 353.489 516.007 353.963 517.775 354.43C519.551 354.89 521.537 355.118 523.737 355.118C525.037 355.118 526.258 354.998 527.399 354.759C528.541 354.52 529.524 354.132 530.348 353.594C531.173 353.056 531.827 352.379 532.314 351.561C532.81 350.747 533.06 349.783 533.06 348.677Z" fill="#797778"/>
<path d="M578.31 323.766H565.451V358.57H560.552V323.766H547.693V319.642H578.31V323.766Z" fill="#797778"/>
<path d="M590.285 320.031C591.783 319.773 593.508 319.575 595.454 319.433C597.396 319.283 599.18 319.209 600.797 319.209C602.604 319.209 604.321 319.395 605.95 319.762C607.587 320.131 609.026 320.744 610.263 321.6C611.499 322.448 612.486 323.557 613.228 324.932C613.977 326.299 614.353 327.966 614.353 329.938C614.353 332.979 613.469 335.445 611.705 337.335C609.938 339.218 607.698 340.481 604.983 341.116L607.805 343.163L618.079 358.57H612.355L600.971 341.773L595.184 340.936V358.57H590.285V320.031ZM600.908 323.199C600.401 323.199 599.869 323.199 599.322 323.199C598.771 323.199 598.236 323.221 597.721 323.258C597.214 323.299 596.73 323.341 596.278 323.378C595.822 323.408 595.458 323.464 595.184 323.542V337.888H599.782C602.497 337.888 604.737 337.26 606.505 336.005C608.281 334.742 609.169 332.774 609.169 330.102C609.169 328.1 608.439 326.452 606.981 325.156C605.53 323.852 603.508 323.199 600.908 323.199Z" fill="#797778"/>
<path d="M655.008 319.642H659.733V345.614C659.733 347.945 659.404 349.97 658.749 351.681C658.103 353.384 657.18 354.785 655.975 355.88C654.778 356.967 653.335 357.77 651.646 358.286C649.954 358.801 648.087 359.063 646.049 359.063C641.166 359.063 637.48 358.028 634.998 355.955C632.525 353.885 631.288 350.736 631.288 346.51V319.642H636.187V344.329C636.187 346.301 636.393 347.967 636.806 349.32C637.218 350.665 637.836 351.756 638.661 352.592C639.493 353.429 640.532 354.034 641.768 354.401C643.005 354.77 644.448 354.954 646.097 354.954C649.288 354.954 651.571 354.132 652.946 352.488C654.318 350.837 655.008 348.117 655.008 344.329V319.642Z" fill="#797778"/>
<path d="M684.74 343.118L671.12 319.642H676.844L686.515 336.663L687.514 340.055H687.578L688.64 336.543L697.899 319.642H703.148L689.639 343.058V358.57H684.74V343.118Z" fill="#797778"/>
<path d="M714.475 319.642H736.958V323.766H719.374V336.498H735.483V340.608H719.374V354.46H737.259V358.57H714.475V319.642Z" fill="#797778"/>
<path d="M759.434 333.106L756.247 327.487H756.009L756.611 333.106V358.57H751.998V319.029H754.598L774.369 345.001L777.429 350.336H777.731L777.081 345.001V319.642H781.679V359.183H779.078L759.434 333.106Z" fill="#797778"/>
<path d="M797.603 319.642C798.352 319.534 799.188 319.455 800.108 319.403C801.035 319.343 802.002 319.306 803.009 319.283C804.012 319.265 804.995 319.25 805.958 319.239C806.918 319.22 807.813 319.209 808.638 319.209C811.944 319.209 814.806 319.694 817.216 320.658C819.633 321.615 821.631 322.956 823.209 324.678C824.782 326.404 825.952 328.47 826.713 330.88C827.482 333.293 827.87 335.942 827.87 338.829C827.87 341.46 827.506 343.992 826.776 346.421C826.047 348.853 824.893 351.005 823.32 352.876C821.754 354.752 819.713 356.25 817.2 357.374C814.683 358.503 811.634 359.063 808.051 359.063C807.417 359.063 806.596 359.052 805.594 359.033C804.599 359.022 803.568 358.988 802.502 358.929C801.443 358.876 800.46 358.831 799.553 358.794C798.641 358.753 797.991 358.697 797.603 358.63V319.642ZM808.765 323.318C808.245 323.318 807.679 323.318 807.068 323.318C806.466 323.318 805.867 323.341 805.277 323.378C804.682 323.408 804.139 323.445 803.643 323.482C803.156 323.524 802.775 323.557 802.502 323.587V354.729C802.7 354.77 803.077 354.8 803.628 354.819C804.175 354.841 804.745 354.86 805.34 354.879C805.931 354.89 806.501 354.905 807.052 354.924C807.599 354.946 807.972 354.954 808.162 354.954C810.921 354.954 813.228 354.513 815.091 353.624C816.962 352.738 818.456 351.543 819.578 350.037C820.696 348.535 821.496 346.809 821.972 344.867C822.448 342.917 822.686 340.903 822.686 338.829C822.686 337.018 822.468 335.194 822.036 333.36C821.6 331.518 820.85 329.86 819.784 328.384C818.726 326.901 817.299 325.687 815.503 324.738C813.715 323.793 811.468 323.318 808.765 323.318Z" fill="#797778"/>
<path d="M840.375 339.113C840.375 332.62 841.825 327.644 844.735 324.185C847.652 320.718 851.806 318.984 857.197 318.984C860.102 318.984 862.62 319.47 864.744 320.434C866.869 321.39 868.629 322.75 870.024 324.514C871.419 326.277 872.45 328.395 873.116 330.865C873.79 333.326 874.13 336.076 874.13 339.113C874.13 345.599 872.66 350.575 869.723 354.042C866.793 357.509 862.62 359.242 857.197 359.242C854.319 359.242 851.83 358.757 849.729 357.793C847.624 356.829 845.876 355.469 844.481 353.713C843.086 351.95 842.047 349.839 841.373 347.377C840.707 344.908 840.375 342.154 840.375 339.113ZM845.575 339.113C845.575 341.258 845.797 343.294 846.241 345.225C846.693 347.149 847.39 348.842 848.334 350.306C849.285 351.771 850.494 352.944 851.965 353.818C853.443 354.685 855.187 355.118 857.197 355.118C860.852 355.118 863.721 353.814 865.806 351.203C867.887 348.595 868.93 344.564 868.93 339.113C868.93 337.003 868.7 334.974 868.248 333.031C867.804 331.081 867.095 329.37 866.124 327.906C865.16 326.441 863.939 325.276 862.461 324.409C860.99 323.535 859.234 323.094 857.197 323.094C853.582 323.094 850.736 324.405 848.667 327.024C846.606 329.635 845.575 333.666 845.575 339.113Z" fill="#797778"/>
<path d="M909.993 319.642H932.476V323.766H914.892V337.051H931.303V341.161H914.892V358.57H909.993V319.642Z" fill="#797778"/>
<path d="M970.114 319.642H974.839V345.614C974.839 347.945 974.51 349.97 973.856 351.681C973.21 353.384 972.286 354.785 971.081 355.88C969.884 356.967 968.441 357.77 966.753 358.286C965.06 358.801 963.193 359.063 961.156 359.063C956.272 359.063 952.586 358.028 950.105 355.955C947.631 353.885 946.395 350.736 946.395 346.51V319.642H951.294V344.329C951.294 346.301 951.5 347.967 951.912 349.32C952.324 350.665 952.943 351.756 953.767 352.592C954.6 353.429 955.638 354.034 956.875 354.401C958.112 354.77 959.554 354.954 961.203 354.954C964.394 354.954 966.677 354.132 968.053 352.488C969.424 350.837 970.114 348.117 970.114 344.329V319.642Z" fill="#797778"/>
<path d="M1017.43 323.766H1004.57V358.57H999.672V323.766H986.813V319.642H1017.43V323.766Z" fill="#797778"/>
<path d="M1053.12 319.642H1057.85V345.614C1057.85 347.945 1057.52 349.97 1056.87 351.681C1056.22 353.384 1055.3 354.785 1054.09 355.88C1052.89 356.967 1051.45 357.77 1049.76 358.286C1048.07 358.801 1046.2 359.063 1044.17 359.063C1039.28 359.063 1035.6 358.028 1033.11 355.955C1030.64 353.885 1029.4 350.736 1029.4 346.51V319.642H1034.3V344.329C1034.3 346.301 1034.51 347.967 1034.92 349.32C1035.33 350.665 1035.95 351.756 1036.78 352.592C1037.61 353.429 1038.65 354.034 1039.88 354.401C1041.12 354.77 1042.56 354.954 1044.21 354.954C1047.4 354.954 1049.69 354.132 1051.06 352.488C1052.43 350.837 1053.12 348.117 1053.12 344.329V319.642Z" fill="#797778"/>
<path d="M1073.77 320.031C1075.27 319.773 1076.99 319.575 1078.94 319.433C1080.88 319.283 1082.67 319.209 1084.28 319.209C1086.09 319.209 1087.81 319.395 1089.44 319.762C1091.07 320.131 1092.51 320.744 1093.75 321.6C1094.99 322.448 1095.97 323.557 1096.71 324.932C1097.46 326.299 1097.84 327.966 1097.84 329.938C1097.84 332.979 1096.96 335.445 1095.19 337.335C1093.42 339.218 1091.18 340.481 1088.47 341.116L1091.29 343.163L1101.57 358.57H1095.84L1084.46 341.773L1078.67 340.936V358.57H1073.77V320.031ZM1084.39 323.199C1083.89 323.199 1083.36 323.199 1082.81 323.199C1082.26 323.199 1081.72 323.221 1081.21 323.258C1080.7 323.299 1080.22 323.341 1079.76 323.378C1079.31 323.408 1078.94 323.464 1078.67 323.542V337.888H1083.27C1085.98 337.888 1088.22 337.26 1089.99 336.005C1091.77 334.742 1092.65 332.774 1092.65 330.102C1092.65 328.1 1091.93 326.452 1090.47 325.156C1089.02 323.852 1086.99 323.199 1084.39 323.199Z" fill="#797778"/>
<path d="M1110.47 339.113C1110.47 332.62 1111.92 327.644 1114.83 324.185C1117.74 320.718 1121.9 318.984 1127.29 318.984C1130.19 318.984 1132.71 319.47 1134.84 320.434C1136.96 321.39 1138.72 322.75 1140.12 324.514C1141.51 326.277 1142.54 328.395 1143.21 330.865C1143.88 333.327 1144.22 336.076 1144.22 339.113C1144.22 345.599 1142.75 350.575 1139.81 354.042C1136.88 357.509 1132.71 359.242 1127.29 359.242C1124.41 359.242 1121.92 358.757 1119.82 357.793C1117.72 356.829 1115.97 355.469 1114.57 353.713C1113.18 351.95 1112.14 349.839 1111.46 347.377C1110.8 344.908 1110.47 342.154 1110.47 339.113ZM1115.67 339.113C1115.67 341.258 1115.89 343.294 1116.33 345.225C1116.78 347.149 1117.48 348.842 1118.43 350.306C1119.38 351.771 1120.59 352.944 1122.06 353.818C1123.53 354.685 1125.28 355.118 1127.29 355.118C1130.94 355.118 1133.81 353.814 1135.9 351.203C1137.98 348.595 1139.02 344.564 1139.02 339.113C1139.02 337.003 1138.79 334.974 1138.34 333.031C1137.9 331.081 1137.19 329.37 1136.21 327.906C1135.25 326.441 1134.03 325.276 1132.55 324.409C1131.08 323.535 1129.33 323.094 1127.29 323.094C1123.67 323.094 1120.83 324.405 1118.76 327.024C1116.7 329.635 1115.67 333.667 1115.67 339.113Z" fill="#797778"/>
<path d="M1187.4 343.118L1173.78 319.642H1179.5L1189.18 336.663L1190.17 340.055H1190.24L1191.3 336.543L1200.56 319.642H1205.81L1192.3 343.058V358.57H1187.4V343.118Z" fill="#797778"/>
<path d="M1263.74 356.956C1262.56 357.815 1261.07 358.405 1259.25 358.734C1257.44 359.07 1255.52 359.242 1253.48 359.242C1250.99 359.242 1248.67 358.843 1246.5 358.047C1244.35 357.251 1242.46 356.037 1240.84 354.401C1239.23 352.768 1237.96 350.68 1237.01 348.139C1236.06 345.599 1235.59 342.591 1235.59 339.113C1235.59 335.478 1236.12 332.389 1237.16 329.848C1238.21 327.308 1239.58 325.231 1241.29 323.617C1243 322.003 1244.92 320.83 1247.04 320.09C1249.17 319.354 1251.33 318.984 1253.54 318.984C1255.9 318.984 1257.82 319.104 1259.31 319.343C1260.81 319.582 1262.09 319.907 1263.15 320.314L1261.98 324.379C1260.08 323.524 1257.39 323.094 1253.89 323.094C1252.27 323.094 1250.68 323.374 1249.1 323.931C1247.54 324.491 1246.13 325.403 1244.89 326.665C1243.65 327.921 1242.65 329.572 1241.9 331.612C1241.16 333.644 1240.79 336.147 1240.79 339.113C1240.79 341.785 1241.15 344.119 1241.86 346.122C1242.56 348.117 1243.54 349.779 1244.77 351.113C1246.01 352.45 1247.46 353.452 1249.13 354.117C1250.8 354.785 1252.63 355.118 1254.6 355.118C1256.37 355.118 1257.91 354.953 1259.22 354.625C1260.54 354.289 1261.65 353.859 1262.56 353.34L1263.74 356.956Z" fill="#797778"/>
<path d="M1273.65 339.113C1273.65 332.62 1275.1 327.644 1278.01 324.185C1280.93 320.718 1285.08 318.984 1290.48 318.984C1293.38 318.984 1295.9 319.47 1298.02 320.434C1300.15 321.39 1301.91 322.75 1303.3 324.514C1304.7 326.277 1305.73 328.395 1306.39 330.865C1307.07 333.327 1307.41 336.076 1307.41 339.113C1307.41 345.599 1305.94 350.575 1303 354.042C1300.07 357.509 1295.9 359.242 1290.48 359.242C1287.6 359.242 1285.11 358.757 1283.01 357.793C1280.9 356.829 1279.16 355.469 1277.76 353.713C1276.36 351.95 1275.33 349.839 1274.65 347.377C1273.99 344.908 1273.65 342.154 1273.65 339.113ZM1278.85 339.113C1278.85 341.258 1279.08 343.294 1279.52 345.225C1279.97 347.149 1280.67 348.842 1281.61 350.306C1282.56 351.771 1283.77 352.944 1285.24 353.818C1286.72 354.685 1288.47 355.118 1290.48 355.118C1294.13 355.118 1297 353.814 1299.09 351.203C1301.17 348.595 1302.21 344.564 1302.21 339.113C1302.21 337.003 1301.98 334.974 1301.53 333.031C1301.08 331.081 1300.37 329.37 1299.4 327.906C1298.44 326.441 1297.22 325.276 1295.74 324.409C1294.27 323.535 1292.51 323.094 1290.48 323.094C1286.86 323.094 1284.01 324.405 1281.95 327.024C1279.88 329.635 1278.85 333.667 1278.85 339.113Z" fill="#797778"/>
<path d="M1329.06 333.106L1325.87 327.487H1325.63L1326.23 333.106V358.57H1321.62V319.029H1324.22L1343.99 345.001L1347.05 350.336H1347.35L1346.7 345.001V319.642H1351.3V359.183H1348.7L1329.06 333.106Z" fill="#797778"/>
<path d="M1367.23 319.642H1389.71V323.766H1372.12V337.051H1388.53V341.161H1372.12V358.57H1367.23V319.642Z" fill="#797778"/>
<path d="M1404.75 319.642H1409.65V358.57H1404.75V319.642Z" fill="#797778"/>
<path d="M1446.34 347.781H1431.12L1427 358.57H1422.16L1437.79 319.029H1440.03L1455.73 358.57H1450.59L1446.34 347.781ZM1432.72 343.776H1444.86L1440.27 331.941L1438.79 326.038H1438.73L1437.25 332.045L1432.72 343.776Z" fill="#797778"/>
<path d="M156.75 0V65.5572C156.75 65.5572 101.799 81.2554 20.5723 141.272V172.433C20.5723 172.433 101.153 111.494 156.75 105.262V164.125C156.75 164.125 73.4774 180.746 0 233.377V116.686C0 116.686 76.1689 22.1575 156.75 0Z" fill="#797778"/>
<path d="M0 254.152V365.646H156.75V304.015C156.75 304.015 100.907 301.938 24.4925 324.099V290.857C24.4925 290.857 77.3937 268.696 156.75 263.155V200.366C156.75 200.366 60.6505 219.296 0 254.152Z" fill="#797778"/>
<path d="M318.89 116.687V169.665C318.89 169.665 223.861 77.0974 156.75 65.5572V0C156.75 0 235.126 21.4664 318.89 116.687Z" fill="#C3C3C3"/>
<path d="M156.75 105.262C156.75 105.262 249.087 123.96 318.89 186.286V294.32C318.89 294.32 228.269 262.461 156.75 263.155V200.367C156.75 200.367 266.722 227.145 280.683 240.994V212.602C280.683 212.602 223.861 175.205 156.75 164.125V105.262Z" fill="#C3C3C3"/>
<path d="M156.75 304.015C156.75 304.015 288.765 310.246 318.89 322.018V365.646H156.75V304.015Z" fill="#C3C3C3"/>
</svg>
